ffmpeg version N-82167-g5e96558 Copyright (c) 2000-2016 the FFmpeg developers
  built with gcc 5.4.0 (Ubuntu 5.4.0-6ubuntu1~16.04.2) 20160609
  configuration: --prefix=/root/ffmpeg_build --pkg-config-flags=--static --extra-cflags=-I/root/ffmpeg_build/include --extra-ldflags=-L/root/ffmpeg_build/lib --bindir=/root/bin --enable-gpl --enable-libass --enable-libfdk-aac --enable-libfreetype --enable-libmp3lame --enable-libopus --enable-libtheora --enable-libvorbis --enable-libx264 --enable-libx265 --enable-nonfree
  libavutil      55. 35.100 / 55. 35.100
  libavcodec     57. 65.100 / 57. 65.100
  libavformat    57. 57.100 / 57. 57.100
  libavdevice    57.  2.100 / 57.  2.100
  libavfilter     6. 66.100 /  6. 66.100
  libswscale      4.  3.100 /  4.  3.100
  libswresample   2.  4.100 /  2.  4.100
  libpostproc    54.  2.100 / 54.  2.100
Input #0, matroska,webm, from '/media/yubikiri/bot/queue/3AnimePahe_Detective_Conan_-_060_720p_Fansub.mkv':
  Metadata:
    title           : 3|Text||0|0
    ALBUM           : Anime
    LANGUAGE        : Undefined
    ENCODER         : Lavf57.57.100
  Duration: 00:24:28.38, start: 0.000000, bitrate: 976 kb/s
    Stream #0:0: Video: mpeg4 (Advanced Simple Profile), yuv420p, 640x480 [SAR 1:1 DAR 4:3], 23.98 fps, 23.98 tbr, 1k tbn, 23.98 tbc (default)
    Metadata:
      DURATION        : 00:24:28.384000000
    Stream #0:1: Audio: mp3, 48000 Hz, stereo, s16p, 128 kb/s (default)
    Metadata:
      DURATION        : 00:24:28.344000000
[libx264 @ 0x36a8fc0] using SAR=1/1
[libx264 @ 0x36a8fc0] using cpu capabilities: MMX2 SSE2Fast SSSE3 SSE4.2 AVX FMA3 AVX2 LZCNT BMI2
[libx264 @ 0x36a8fc0] profile High, level 3.1
[libx264 @ 0x36a8fc0] 264 - core 148 r2643 5c65704 - H.264/MPEG-4 AVC codec - Copyleft 2003-2015 - http://www.videolan.org/x264.html - options: cabac=1 ref=8 deblock=1:1:1 analyse=0x3:0x133 me=umh subme=7 psy=1 psy_rd=0.00:0.00 mixed_ref=1 me_range=8 chroma_me=1 trellis=0 8x8dct=1 cqm=0 deadzone=21,11 fast_pskip=1 chroma_qp_offset=0 threads=8 lookahead_threads=2 sliced_threads=0 nr=0 decimate=1 interlaced=0 bluray_compat=0 constrained_intra=0 bframes=3 b_pyramid=2 b_adapt=2 b_bias=0 direct=1 weightb=1 open_gop=0 weightp=2 keyint=240 keyint_min=24 scenecut=40 intra_refresh=0 rc_lookahead=60 rc=crf mbtree=1 crf=27.0 qcomp=0.60 qpmin=0 qpmax=69 qpstep=4 ip_ratio=1.40 aq=1:1.00
[libfdk_aac @ 0x36a6420] Note, the VBR setting is unsupported and only works with some parameter combinations
Output #0, mp4, to '/media/yubikiri/bot/queue/3AnimePahe_Detective_Conan_-_060_720p_Fansub.mkv_encoded.mp4':
  Metadata:
    encoder         : Lavf57.57.100
    Stream #0:0: Video: h264 (libx264) ([33][0][0][0] / 0x0021), yuv420p, 640x480 [SAR 1:1 DAR 4:3], q=-1--1, 23.98 fps, 24k tbn, 23.98 tbc (default)
    Metadata:
      encoder         : Lavc57.65.100 libx264
    Side data:
      cpb: bitrate max/min/avg: 0/0/0 buffer size: 0 vbv_delay: -1
    Stream #0:1: Audio: aac (libfdk_aac) (HE-AACv2) ([64][0][0][0] / 0x0040), 48000 Hz, stereo, s16, 48 kb/s (default)
    Metadata:
      encoder         : Lavc57.65.100 libfdk_aac
Stream mapping:
  Stream #0:0 -> #0:0 (mpeg4 (native) -> h264 (libx264))
  Stream #0:1 -> #0:1 (mp3 (native) -> aac (libfdk_aac))
Press [q] to stop, [?] for help
frame=  112 fps=0.0 q=32.0 size=      99kB time=00:00:04.84 bitrate= 166.8kbits/s dup=1 drop=0 speed= 9.6x    frame=  178 fps=168 q=32.0 size=     256kB time=00:00:07.57 bitrate= 277.4kbits/s dup=1 drop=0 speed=7.16x    frame=  227 fps=145 q=32.0 size=     413kB time=00:00:09.62 bitrate= 352.0kbits/s dup=1 drop=0 speed=6.13x    frame=  286 fps=137 q=32.0 size=     586kB time=00:00:12.09 bitrate= 396.7kbits/s dup=1 drop=0 speed= 5.8x    frame=  328 fps=126 q=32.0 size=     721kB time=00:00:13.84 bitrate= 426.8kbits/s dup=1 drop=0 speed=5.32x    frame=  370 fps=119 q=32.0 size=     893kB time=00:00:15.59 bitrate= 468.9kbits/s dup=1 drop=0 speed=5.02x    frame=  399 fps=110 q=32.0 size=    1007kB time=00:00:16.79 bitrate= 491.1kbits/s dup=1 drop=0 speed=4.64x    frame=  464 fps=112 q=32.0 size=    1179kB time=00:00:19.52 bitrate= 494.9kbits/s dup=1 drop=0 speed=4.73x    frame=  519 fps=112 q=32.0 size=    1356kB time=00:00:21.82 bitrate= 508.9kbits/s dup=1 drop=0 speed= 4.7x    frame=  582 fps=113 q=32.0 size=    1480kB time=00:00:24.42 bitrate= 496.4kbits/s dup=1 drop=0 speed=4.74x    frame=  639 fps=113 q=32.0 size=    1618kB time=00:00:26.81 bitrate= 494.1kbits/s dup=1 drop=0 speed=4.74x    frame=  736 fps=120 q=32.0 size=    1731kB time=00:00:30.87 bitrate= 459.4kbits/s dup=1 drop=0 speed=5.01x    frame=  808 fps=121 q=32.0 size=    1884kB time=00:00:33.85 bitrate= 455.9kbits/s dup=1 drop=0 speed=5.06x    frame=  859 fps=119 q=32.0 size=    1998kB time=00:00:35.99 bitrate= 454.8kbits/s dup=1 drop=0 speed=   5x    frame=  925 fps=120 q=32.0 size=    2083kB time=00:00:38.72 bitrate= 440.7kbits/s dup=1 drop=0 speed=5.03x    frame=  966 fps=117 q=32.0 size=    2212kB time=00:00:40.42 bitrate= 448.2kbits/s dup=1 drop=0 speed=4.91x    frame= 1004 fps=115 q=32.0 size=    2387kB time=00:00:42.00 bitrate= 465.5kbits/s dup=1 drop=0 speed=4.79x    frame= 1055 fps=113 q=32.0 size=    2499kB time=00:00:44.13 bitrate= 463.8kbits/s dup=1 drop=0 speed=4.73x    frame= 1107 fps=112 q=32.0 size=    2626kB time=00:00:46.31 bitrate= 464.4kbits/s dup=1 drop=0 speed= 4.7x    frame= 1157 fps=111 q=32.0 size=    2788kB time=00:00:48.40 bitrate= 471.8kbits/s dup=1 drop=0 speed=4.65x    frame= 1208 fps=111 q=32.0 size=    2946kB time=00:00:50.53 bitrate= 477.5kbits/s dup=1 drop=0 speed=4.63x    frame= 1243 fps=109 q=32.0 size=    3066kB time=00:00:51.99 bitrate= 483.1kbits/s dup=1 drop=0 speed=4.55x    frame= 1285 fps=108 q=32.0 size=    3185kB time=00:00:53.73 bitrate= 485.5kbits/s dup=1 drop=0 speed=4.51x    frame= 1337 fps=108 q=32.0 size=    3309kB time=00:00:55.91 bitrate= 484.8kbits/s dup=1 drop=0 speed= 4.5x    frame= 1404 fps=109 q=32.0 size=    3378kB time=00:00:58.73 bitrate= 471.2kbits/s dup=1 drop=0 speed=4.54x    frame= 1468 fps=109 q=32.0 size=    3462kB time=00:01:01.37 bitrate= 462.1kbits/s dup=1 drop=0 speed=4.57x    frame= 1517 fps=109 q=32.0 size=    3562kB time=00:01:03.46 bitrate= 459.8kbits/s dup=1 drop=0 speed=4.55x    frame= 1563 fps=108 q=32.0 size=    3637kB time=00:01:05.34 bitrate= 456.0kbits/s dup=1 drop=0 speed=4.53x    frame= 1594 fps=107 q=32.0 size=    3725kB time=00:01:06.66 bitrate= 457.7kbits/s dup=1 drop=0 speed=4.46x    frame= 1633 fps=106 q=32.0 size=    3819kB time=00:01:08.28 bitrate= 458.1kbits/s dup=1 drop=0 speed=4.42x    frame= 1672 fps=105 q=32.0 size=    3908kB time=00:01:09.86 bitrate= 458.2kbits/s dup=1 drop=0 speed=4.37x    frame= 1720 fps=104 q=32.0 size=    4014kB time=00:01:11.91 bitrate= 457.2kbits/s dup=1 drop=0 speed=4.36x    frame= 1794 fps=105 q=32.0 size=    4147kB time=00:01:14.98 bitrate= 453.1kbits/s dup=1 drop=0 speed=4.41x    frame= 1854 fps=106 q=32.0 size=    4276kB time=00:01:17.50 bitrate= 451.9kbits/s dup=1 drop=0 speed=4.42x    frame= 1926 fps=107 q=32.0 size=    4388kB time=00:01:20.49 bitrate= 446.6kbits/s dup=1 drop=0 speed=4.46x    frame= 1980 fps=107 q=32.0 size=    4506kB time=00:01:22.75 bitrate= 446.1kbits/s dup=1 drop=0 speed=4.47x    frame= 2008 fps=105 q=32.0 size=    4621kB time=00:01:23.90 bitrate= 451.2kbits/s dup=1 drop=0 speed=4.41x    frame= 2036 fps=104 q=32.0 size=    4745kB time=00:01:25.09 bitrate= 456.8kbits/s dup=1 drop=0 speed=4.35x    frame= 2072 fps=103 q=32.0 size=    4908kB time=00:01:26.55 bitrate= 464.6kbits/s dup=1 drop=0 speed=4.31x    frame= 2113 fps=103 q=32.0 size=    5030kB time=00:01:28.29 bitrate= 466.6kbits/s dup=1 drop=0 speed=4.29x    frame= 2178 fps=103 q=32.0 size=    5154kB time=00:01:30.98 bitrate= 464.1kbits/s dup=1 drop=0 speed=4.32x    frame= 2259 fps=105 q=32.0 size=    5263kB time=00:01:34.35 bitrate= 456.9kbits/s dup=1 drop=0 speed=4.37x    frame= 2380 fps=108 q=32.0 size=    5380kB time=00:01:39.43 bitrate= 443.3kbits/s dup=1 drop=0 speed= 4.5x    frame= 2520 fps=112 q=32.0 size=    5475kB time=00:01:45.23 bitrate= 426.2kbits/s dup=1 drop=0 speed=4.66x    frame= 2577 fps=112 q=32.0 size=    5578kB time=00:01:47.62 bitrate= 424.5kbits/s dup=1 drop=0 speed=4.66x    frame= 2631 fps=111 q=32.0 size=    5671kB time=00:01:49.88 bitrate= 422.8kbits/s dup=1 drop=0 speed=4.65x    frame= 2729 fps=113 q=32.0 size=    5799kB time=00:01:53.98 bitrate= 416.8kbits/s dup=1 drop=0 speed=4.72x    frame= 2798 fps=113 q=32.0 size=    5877kB time=00:01:56.84 bitrate= 412.1kbits/s dup=1 drop=0 speed=4.74x    frame= 2856 fps=113 q=32.0 size=    6019kB time=00:01:59.27 bitrate= 413.4kbits/s dup=1 drop=0 speed=4.74x    frame= 2954 fps=115 q=32.0 size=    6097kB time=00:02:03.37 bitrate= 404.9kbits/s dup=1 drop=0 speed= 4.8x    frame= 3046 fps=116 q=32.0 size=    6167kB time=00:02:07.21 bitrate= 397.1kbits/s dup=1 drop=0 speed=4.86x    frame= 3110 fps=116 q=32.0 size=    6271kB time=00:02:09.85 bitrate= 395.6kbits/s dup=1 drop=0 speed=4.86x    frame= 3173 fps=117 q=32.0 size=    6393kB time=00:02:12.50 bitrate= 395.2kbits/s dup=1 drop=0 speed=4.87x    frame= 3247 fps=117 q=32.0 size=    6504kB time=00:02:15.61 bitrate= 392.9kbits/s dup=1 drop=0 speed=4.89x    frame= 3341 fps=118 q=32.0 size=    6594kB time=00:02:19.49 bitrate= 387.2kbits/s dup=1 drop=0 speed=4.94x    frame= 3420 fps=119 q=32.0 size=    6676kB time=00:02:22.78 bitrate= 383.0kbits/s dup=1 drop=0 speed=4.97x    frame= 3515 fps=120 q=32.0 size=    6780kB time=00:02:26.75 bitrate= 378.5kbits/s dup=1 drop=0 speed=5.02x    frame= 3615 fps=122 q=32.0 size=    6854kB time=00:02:30.93 bitrate= 372.0kbits/s dup=1 drop=0 speed=5.08x    frame= 3690 fps=122 q=32.0 size=    6982kB time=00:02:34.04 bitrate= 371.3kbits/s dup=1 drop=0 speed= 5.1x    frame= 3780 fps=123 q=32.0 size=    7097kB time=00:02:37.80 bitrate= 368.4kbits/s dup=1 drop=0 speed=5.14x    frame= 3850 fps=123 q=32.0 size=    7199kB time=00:02:40.74 bitrate= 366.9kbits/s dup=1 drop=0 speed=5.15x    frame= 3932 fps=124 q=32.0 size=    7327kB time=00:02:44.20 bitrate= 365.5kbits/s dup=1 drop=0 speed=5.17x    frame= 3999 fps=124 q=32.0 size=    7455kB time=00:02:46.93 bitrate= 365.9kbits/s dup=1 drop=0 speed=5.18x    frame= 4076 fps=125 q=32.0 size=    7561kB time=00:02:50.13 bitrate= 364.1kbits/s dup=1 drop=0 speed= 5.2x    frame= 4148 fps=125 q=32.0 size=    7664kB time=00:02:53.16 bitrate= 362.6kbits/s dup=1 drop=0 speed=5.21x    frame= 4203 fps=125 q=32.0 size=    7753kB time=00:02:55.46 bitrate= 362.0kbits/s dup=1 drop=0 speed= 5.2x    frame= 4260 fps=124 q=32.0 size=    7859kB time=00:02:57.85 bitrate= 362.0kbits/s dup=1 drop=0 speed=5.19x    frame= 4297 fps=124 q=32.0 size=    7960kB time=00:02:59.35 bitrate= 363.6kbits/s dup=1 drop=0 speed=5.16x    frame= 4365 fps=124 q=32.0 size=    8088kB time=00:03:02.20 bitrate= 363.6kbits/s dup=1 drop=0 speed=5.16x    frame= 4421 fps=124 q=32.0 size=    8204kB time=00:03:04.55 bitrate= 364.2kbits/s dup=1 drop=0 speed=5.16x    frame= 4480 fps=123 q=32.0 size=    8317kB time=00:03:06.98 bitrate= 364.4kbits/s dup=1 drop=0 speed=5.15x    frame= 4558 fps=124 q=32.0 size=    8446kB time=00:03:10.27 bitrate= 363.6kbits/s dup=1 drop=0 speed=5.17x    frame= 4628 fps=124 q=32.0 size=    8549kB time=00:03:13.17 bitrate= 362.5kbits/s dup=1 drop=0 speed=5.18x    frame= 4680 fps=124 q=32.0 size=    8650kB time=00:03:15.35 bitrate= 362.7kbits/s dup=1 drop=0 speed=5.17x    frame= 4731 fps=123 q=32.0 size=    8736kB time=00:03:17.48 bitrate= 362.4kbits/s dup=1 drop=0 speed=5.15x    frame= 4782 fps=123 q=32.0 size=    8820kB time=00:03:19.61 bitrate= 362.0kbits/s dup=1 drop=0 speed=5.14x    frame= 4824 fps=122 q=32.0 size=    8987kB time=00:03:21.36 bitrate= 365.6kbits/s dup=1 drop=0 speed=5.11x    frame= 4914 fps=123 q=32.0 size=    9156kB time=00:03:25.12 bitrate= 365.7kbits/s dup=1 drop=0 speed=5.14x    frame= 4991 fps=124 q=32.0 size=    9234kB time=00:03:28.36 bitrate= 363.0kbits/s dup=1 drop=0 speed=5.16x    frame= 5035 fps=123 q=32.0 size=    9338kB time=00:03:30.15 bitrate= 364.0kbits/s dup=1 drop=0 speed=5.14x    frame= 5080 fps=123 q=32.0 size=    9421kB time=00:03:32.03 bitrate= 364.0kbits/s dup=1 drop=0 speed=5.12x    frame= 5129 fps=122 q=32.0 size=    9513kB time=00:03:34.08 bitrate= 364.0kbits/s dup=1 drop=0 speed=5.11x    frame= 5198 fps=122 q=32.0 size=    9632kB time=00:03:36.93 bitrate= 363.7kbits/s dup=1 drop=0 speed=5.11x    frame= 5279 fps=123 q=32.0 size=    9709kB time=00:03:40.35 bitrate= 360.9kbits/s dup=1 drop=0 speed=5.13x    frame= 5339 fps=123 q=32.0 size=    9806kB time=00:03:42.82 bitrate= 360.5kbits/s dup=1 drop=0 speed=5.13x    frame= 5400 fps=123 q=32.0 size=    9890kB time=00:03:45.38 bitrate= 359.5kbits/s dup=1 drop=0 speed=5.13x    frame= 5469 fps=123 q=32.0 size=    9979kB time=00:03:48.24 bitrate= 358.2kbits/s dup=1 drop=0 speed=5.13x    frame= 5529 fps=123 q=32.0 size=   10037kB time=00:03:50.76 bitrate= 356.3kbits/s dup=1 drop=0 speed=5.13x    frame= 5565 fps=122 q=32.0 size=   10111kB time=00:03:52.25 bitrate= 356.6kbits/s dup=1 drop=0 speed=5.11x    frame= 5614 fps=122 q=32.0 size=   10209kB time=00:03:54.30 bitrate= 356.9kbits/s dup=1 drop=0 speed=5.09x    frame= 5662 fps=122 q=32.0 size=   10283kB time=00:03:56.31 bitrate= 356.5kbits/s dup=1 drop=0 speed=5.08x    frame= 5721 fps=122 q=32.0 size=   10371kB time=00:03:58.78 bitrate= 355.8kbits/s dup=1 drop=0 speed=5.08x    frame= 5778 fps=122 q=32.0 size=   10482kB time=00:04:01.13 bitrate= 356.1kbits/s dup=1 drop=0 speed=5.07x    frame= 5838 fps=122 q=32.0 size=   10555kB time=00:04:03.64 bitrate= 354.9kbits/s dup=1 drop=0 speed=5.07x    frame= 5915 fps=122 q=32.0 size=   10630kB time=00:04:06.84 bitrate= 352.8kbits/s dup=1 drop=0 speed=5.09x    frame= 6004 fps=122 q=32.0 size=   10718kB time=00:04:10.60 bitrate= 350.4kbits/s dup=1 drop=0 speed=5.11x    frame= 6079 fps=123 q=32.0 size=   10834kB time=00:04:13.71 bitrate= 349.8kbits/s dup=1 drop=0 speed=5.12x    frame= 6136 fps=123 q=32.0 size=   10953kB time=00:04:16.06 bitrate= 350.4kbits/s dup=1 drop=0 speed=5.12x    frame= 6180 fps=122 q=32.0 size=   11027kB time=00:04:17.94 bitrate= 350.2kbits/s dup=1 drop=0 speed= 5.1x    frame= 6247 fps=122 q=32.0 size=   11125kB time=00:04:20.71 bitrate= 349.6kbits/s dup=1 drop=0 speed=5.11x    frame= 6289 fps=122 q=32.0 size=   11222kB time=00:04:22.46 bitrate= 350.3kbits/s dup=1 drop=0 speed=5.09x    frame= 6355 fps=122 q=32.0 size=   11331kB time=00:04:25.23 bitrate= 350.0kbits/s dup=1 drop=0 speed= 5.1x    frame= 6409 fps=122 q=32.0 size=   11417kB time=00:04:27.49 bitrate= 349.6kbits/s dup=1 drop=0 speed=5.09x    frame= 6464 fps=122 q=32.0 size=   11500kB time=00:04:29.76 bitrate= 349.2kbits/s dup=1 drop=0 speed=5.08x    frame= 6514 fps=122 q=32.0 size=   11595kB time=00:04:31.85 bitrate= 349.4kbits/s dup=1 drop=0 speed=5.07x    frame= 6574 fps=122 q=32.0 size=   11702kB time=00:04:34.32 bitrate= 349.4kbits/s dup=1 drop=0 speed=5.07x    frame= 6633 fps=122 q=32.0 size=   11799kB time=00:04:36.80 bitrate= 349.2kbits/s dup=1 drop=0 speed=5.07x    frame= 6687 fps=121 q=32.0 size=   11877kB time=00:04:39.06 bitrate= 348.6kbits/s dup=1 drop=0 speed=5.07x    frame= 6741 fps=121 q=32.0 size=   11961kB time=00:04:41.32 bitrate= 348.3kbits/s dup=1 drop=0 speed=5.06x    frame= 6800 fps=121 q=32.0 size=   12058kB time=00:04:43.75 bitrate= 348.1kbits/s dup=1 drop=0 speed=5.06x    frame= 6850 fps=121 q=32.0 size=   12141kB time=00:04:45.84 bitrate= 347.9kbits/s dup=1 drop=0 speed=5.05x    frame= 6910 fps=121 q=32.0 size=   12232kB time=00:04:48.36 bitrate= 347.5kbits/s dup=1 drop=0 speed=5.05x    frame= 6941 fps=120 q=32.0 size=   12365kB time=00:04:49.64 bitrate= 349.7kbits/s dup=1 drop=0 speed=5.02x    frame= 6982 fps=120 q=32.0 size=   12492kB time=00:04:51.35 bitrate= 351.2kbits/s dup=1 drop=0 speed=5.01x    frame= 7050 fps=120 q=32.0 size=   12579kB time=00:04:54.16 bitrate= 350.3kbits/s dup=1 drop=0 speed=5.01x    frame= 7103 fps=120 q=32.0 size=   12692kB time=00:04:56.42 bitrate= 350.7kbits/s dup=1 drop=0 speed=5.01x    frame= 7154 fps=120 q=32.0 size=   12789kB time=00:04:58.51 bitrate= 351.0kbits/s dup=1 drop=0 speed=   5x    frame= 7235 fps=120 q=32.0 size=   12877kB time=00:05:01.93 bitrate= 349.4kbits/s dup=1 drop=0 speed=5.01x    frame= 7330 fps=121 q=32.0 size=   12996kB time=00:05:05.85 bitrate= 348.1kbits/s dup=1 drop=0 speed=5.03x    frame= 7418 fps=121 q=32.0 size=   13093kB time=00:05:09.56 bitrate= 346.5kbits/s dup=1 drop=0 speed=5.05x    frame= 7476 fps=121 q=32.0 size=   13178kB time=00:05:11.95 bitrate= 346.1kbits/s dup=1 drop=0 speed=5.05x    frame= 7534 fps=121 q=32.0 size=   13321kB time=00:05:14.39 bitrate= 347.1kbits/s dup=1 drop=0 speed=5.05x    frame= 7601 fps=121 q=32.0 size=   13468kB time=00:05:17.16 bitrate= 347.9kbits/s dup=1 drop=0 speed=5.05x    frame= 7672 fps=121 q=32.0 size=   13551kB time=00:05:20.15 bitrate= 346.8kbits/s dup=1 drop=0 speed=5.06x    frame= 7734 fps=121 q=32.0 size=   13671kB time=00:05:22.71 bitrate= 347.0kbits/s dup=1 drop=0 speed=5.06x    frame= 7808 fps=121 q=32.0 size=   13770kB time=00:05:25.82 bitrate= 346.2kbits/s dup=1 drop=0 speed=5.07x    frame= 7879 fps=122 q=32.0 size=   13833kB time=00:05:28.76 bitrate= 344.7kbits/s dup=1 drop=0 speed=5.07x    frame= 7948 fps=122 q=32.0 size=   13916kB time=00:05:31.67 bitrate= 343.7kbits/s dup=1 drop=0 speed=5.08x    frame= 8012 fps=122 q=32.0 size=   13984kB time=00:05:34.31 bitrate= 342.7kbits/s dup=1 drop=0 speed=5.08x    frame= 8073 fps=122 q=32.0 size=   14087kB time=00:05:36.87 bitrate= 342.6kbits/s dup=1 drop=0 speed=5.08x    frame= 8146 fps=122 q=32.0 size=   14195kB time=00:05:39.90 bitrate= 342.1kbits/s dup=1 drop=0 speed=5.09x    frame= 8206 fps=122 q=32.0 size=   14319kB time=00:05:42.42 bitrate= 342.6kbits/s dup=1 drop=0 speed=5.08x    frame= 8287 fps=122 q=32.0 size=   14383kB time=00:05:45.83 bitrate= 340.7kbits/s dup=1 drop=0 speed= 5.1x    frame= 8331 fps=122 q=32.0 size=   14447kB time=00:05:47.62 bitrate= 340.5kbits/s dup=1 drop=0 speed=5.08x    frame= 8387 fps=122 q=32.0 size=   14563kB time=00:05:49.97 bitrate= 340.9kbits/s dup=1 drop=0 speed=5.08x    frame= 8448 fps=122 q=32.0 size=   14643kB time=00:05:52.49 bitrate= 340.3kbits/s dup=1 drop=0 speed=5.08x    frame= 8504 fps=122 q=32.0 size=   14709kB time=00:05:54.79 bitrate= 339.6kbits/s dup=1 drop=0 speed=5.08x    frame= 8547 fps=121 q=32.0 size=   14787kB time=00:05:56.63 bitrate= 339.7kbits/s dup=1 drop=0 speed=5.07x    frame= 8604 fps=121 q=32.0 size=   14883kB time=00:05:59.01 bitrate= 339.6kbits/s dup=1 drop=0 speed=5.06x    frame= 8649 fps=121 q=32.0 size=   14941kB time=00:06:00.89 bitrate= 339.2kbits/s dup=1 drop=0 speed=5.05x    frame= 8698 fps=121 q=32.0 size=   15037kB time=00:06:02.94 bitrate= 339.4kbits/s dup=1 drop=0 speed=5.04x    frame= 8759 fps=121 q=32.0 size=   15124kB time=00:06:05.46 bitrate= 339.0kbits/s dup=1 drop=0 speed=5.04x    frame= 8830 fps=121 q=32.0 size=   15206kB time=00:06:08.49 bitrate= 338.1kbits/s dup=1 drop=0 speed=5.05x    frame= 8899 fps=121 q=32.0 size=   15299kB time=00:06:11.30 bitrate= 337.5kbits/s dup=1 drop=0 speed=5.05x    frame= 8985 fps=121 q=32.0 size=   15369kB time=00:06:14.89 bitrate= 335.8kbits/s dup=1 drop=0 speed=5.07x    frame= 9056 fps=122 q=32.0 size=   15491kB time=00:06:17.87 bitrate= 335.8kbits/s dup=1 drop=0 speed=5.07x    frame= 9113 fps=121 q=32.0 size=   15589kB time=00:06:20.26 bitrate= 335.8kbits/s dup=1 drop=0 speed=5.07x    frame= 9180 fps=122 q=32.0 size=   15690kB time=00:06:23.04 bitrate= 335.6kbits/s dup=1 drop=0 speed=5.07x    frame= 9244 fps=122 q=32.0 size=   15772kB time=00:06:25.68 bitrate= 335.0kbits/s dup=1 drop=0 speed=5.07x    frame= 9325 fps=122 q=32.0 size=   15877kB time=00:06:29.09 bitrate= 334.3kbits/s dup=1 drop=0 speed=5.08x    frame= 9410 fps=122 q=32.0 size=   15986kB time=00:06:32.68 bitrate= 333.5kbits/s dup=1 drop=0 speed= 5.1x    frame= 9484 fps=122 q=32.0 size=   16088kB time=00:06:35.71 bitrate= 333.0kbits/s dup=1 drop=0 speed= 5.1x    frame= 9552 fps=122 q=32.0 size=   16177kB time=00:06:38.57 bitrate= 332.5kbits/s dup=1 drop=0 speed= 5.1x    frame= 9629 fps=122 q=32.0 size=   16293kB time=00:06:41.77 bitrate= 332.2kbits/s dup=1 drop=0 speed=5.11x    frame= 9680 fps=122 q=32.0 size=   16398kB time=00:06:43.90 bitrate= 332.6kbits/s dup=1 drop=0 speed=5.11x    frame= 9741 fps=122 q=32.0 size=   16526kB time=00:06:46.42 bitrate= 333.1kbits/s dup=1 drop=0 speed= 5.1x    frame= 9814 fps=122 q=32.0 size=   16616kB time=00:06:49.49 bitrate= 332.4kbits/s dup=1 drop=0 speed=5.11x    frame= 9877 fps=122 q=32.0 size=   16749kB time=00:06:52.09 bitrate= 333.0kbits/s dup=1 drop=0 speed=5.11x    frame= 9924 fps=122 q=32.0 size=   16840kB time=00:06:54.05 bitrate= 333.2kbits/s dup=1 drop=0 speed= 5.1x    frame=10002 fps=122 q=32.0 size=   16916kB time=00:06:57.34 bitrate= 332.0kbits/s dup=1 drop=0 speed=5.11x    frame=10072 fps=123 q=32.0 size=   17006kB time=00:07:00.24 bitrate= 331.5kbits/s dup=1 drop=0 speed=5.11x    frame=10125 fps=122 q=32.0 size=   17100kB time=00:07:02.42 bitrate= 331.6kbits/s dup=1 drop=0 speed=5.11x    frame=10190 fps=122 q=32.0 size=   17174kB time=00:07:05.15 bitrate= 330.9kbits/s dup=1 drop=0 speed=5.11x    frame=10246 fps=122 q=32.0 size=   17275kB time=00:07:07.49 bitrate= 331.0kbits/s dup=1 drop=0 speed=5.11x    frame=10291 fps=122 q=32.0 size=   17392kB time=00:07:09.37 bitrate= 331.8kbits/s dup=1 drop=0 speed= 5.1x    frame=10347 fps=122 q=32.0 size=   17520kB time=00:07:11.72 bitrate= 332.4kbits/s dup=1 drop=0 speed=5.09x    frame=10414 fps=122 q=32.0 size=   17640kB time=00:07:14.49 bitrate= 332.6kbits/s dup=1 drop=0 speed= 5.1x    frame=10510 fps=123 q=32.0 size=   17745kB time=00:07:18.50 bitrate= 331.5kbits/s dup=1 drop=0 speed=5.11x    frame=10589 fps=123 q=32.0 size=   17825kB time=00:07:21.83 bitrate= 330.5kbits/s dup=1 drop=0 speed=5.12x    frame=10661 fps=123 q=32.0 size=   17946kB time=00:07:24.82 bitrate= 330.5kbits/s dup=1 drop=0 speed=5.13x    frame=10740 fps=123 q=32.0 size=   18052kB time=00:07:28.10 bitrate= 330.0kbits/s dup=1 drop=0 speed=5.13x    frame=10824 fps=123 q=32.0 size=   18163kB time=00:07:31.64 bitrate= 329.4kbits/s dup=1 drop=0 speed=5.15x    frame=10897 fps=123 q=32.0 size=   18274kB time=00:07:34.63 bitrate= 329.3kbits/s dup=1 drop=0 speed=5.15x    frame=10947 fps=123 q=32.0 size=   18396kB time=00:07:36.72 bitrate= 330.0kbits/s dup=1 drop=0 speed=5.14x    frame=10996 fps=123 q=32.0 size=   18483kB time=00:07:38.77 bitrate= 330.0kbits/s dup=1 drop=0 speed=5.14x    frame=11029 fps=123 q=32.0 size=   18566kB time=00:07:40.13 bitrate= 330.5kbits/s dup=1 drop=0 speed=5.12x    frame=11064 fps=123 q=32.0 size=   18656kB time=00:07:41.63 bitrate= 331.1kbits/s dup=1 drop=0 speed=5.11x    frame=11103 fps=122 q=32.0 size=   18746kB time=00:07:43.25 bitrate= 331.5kbits/s dup=1 drop=0 speed= 5.1x    frame=11155 fps=122 q=32.0 size=   18827kB time=00:07:45.38 bitrate= 331.4kbits/s dup=1 drop=0 speed= 5.1x    frame=11208 fps=122 q=32.0 size=   18946kB time=00:07:47.60 bitrate= 331.9kbits/s dup=1 drop=0 speed=5.09x    frame=11255 fps=122 q=32.0 size=   19045kB time=00:07:49.56 bitrate= 332.3kbits/s dup=1 drop=0 speed=5.08x    frame=11305 fps=122 q=32.0 size=   19176kB time=00:07:51.65 bitrate= 333.1kbits/s dup=1 drop=0 speed=5.08x    frame=11356 fps=122 q=32.0 size=   19293kB time=00:07:53.79 bitrate= 333.6kbits/s dup=1 drop=0 speed=5.07x    frame=11415 fps=122 q=32.0 size=   19382kB time=00:07:56.26 bitrate= 333.4kbits/s dup=1 drop=0 speed=5.07x    frame=11498 fps=122 q=32.0 size=   19508kB time=00:07:59.72 bitrate= 333.1kbits/s dup=1 drop=0 speed=5.08x    frame=11601 fps=122 q=32.0 size=   19592kB time=00:08:03.99 bitrate= 331.6kbits/s dup=1 drop=0 speed= 5.1x    frame=11697 fps=123 q=32.0 size=   19693kB time=00:08:08.00 bitrate= 330.6kbits/s dup=1 drop=0 speed=5.11x    frame=11792 fps=123 q=32.0 size=   19783kB time=00:08:11.96 bitrate= 329.4kbits/s dup=1 drop=0 speed=5.13x    frame=11890 fps=123 q=32.0 size=   19852kB time=00:08:16.06 bitrate= 327.8kbits/s dup=1 drop=0 speed=5.14x    frame=11959 fps=123 q=32.0 size=   19982kB time=00:08:18.96 bitrate= 328.1kbits/s dup=1 drop=0 speed=5.15x    frame=12044 fps=124 q=32.0 size=   20071kB time=00:08:22.50 bitrate= 327.2kbits/s dup=1 drop=0 speed=5.16x    frame=12101 fps=124 q=32.0 size=   20201kB time=00:08:24.85 bitrate= 327.8kbits/s dup=1 drop=0 speed=5.15x    frame=12163 fps=123 q=32.0 size=   20304kB time=00:08:27.45 bitrate= 327.8kbits/s dup=1 drop=0 speed=5.15x    frame=12209 fps=123 q=32.0 size=   20408kB time=00:08:29.37 bitrate= 328.2kbits/s dup=1 drop=0 speed=5.14x    frame=12270 fps=123 q=32.0 size=   20505kB time=00:08:31.93 bitrate= 328.1kbits/s dup=1 drop=0 speed=5.14x    frame=12331 fps=123 q=32.0 size=   20586kB time=00:08:34.45 bitrate= 327.8kbits/s dup=1 drop=0 speed=5.14x    frame=12402 fps=123 q=32.0 size=   20694kB time=00:08:37.39 bitrate= 327.7kbits/s dup=1 drop=0 speed=5.15x    frame=12459 fps=123 q=32.0 size=   20835kB time=00:08:39.78 bitrate= 328.4kbits/s dup=1 drop=0 speed=5.15x    frame=12511 fps=123 q=32.0 size=   20944kB time=00:08:41.96 bitrate= 328.7kbits/s dup=1 drop=0 speed=5.14x    frame=12564 fps=123 q=32.0 size=   21025kB time=00:08:44.18 bitrate= 328.6kbits/s dup=1 drop=0 speed=5.14x    frame=12624 fps=123 q=32.0 size=   21120kB time=00:08:46.69 bitrate= 328.5kbits/s dup=1 drop=0 speed=5.13x    frame=12693 fps=123 q=32.0 size=   21239kB time=00:08:49.55 bitrate= 328.6kbits/s dup=1 drop=0 speed=5.13x    frame=12747 fps=123 q=32.0 size=   21381kB time=00:08:51.81 bitrate= 329.4kbits/s dup=1 drop=0 speed=5.13x    frame=12814 fps=123 q=32.0 size=   21482kB time=00:08:54.59 bitrate= 329.2kbits/s dup=1 drop=0 speed=5.13x    frame=12881 fps=123 q=32.0 size=   21567kB time=00:08:57.40 bitrate= 328.8kbits/s dup=1 drop=0 speed=5.13x    frame=12934 fps=123 q=32.0 size=   21638kB time=00:08:59.62 bitrate= 328.5kbits/s dup=1 drop=0 speed=5.13x    frame=12989 fps=123 q=32.0 size=   21708kB time=00:09:01.93 bitrate= 328.1kbits/s dup=1 drop=0 speed=5.13x    frame=13045 fps=123 q=32.0 size=   21784kB time=00:09:04.23 bitrate= 327.9kbits/s dup=1 drop=0 speed=5.13x    frame=13080 fps=123 q=32.0 size=   21930kB time=00:09:05.72 bitrate= 329.2kbits/s dup=1 drop=0 speed=5.12x    frame=13124 fps=122 q=32.0 size=   22024kB time=00:09:07.52 bitrate= 329.5kbits/s dup=1 drop=0 speed=5.11x    frame=13176 fps=122 q=32.0 size=   22138kB time=00:09:09.73 bitrate= 329.9kbits/s dup=1 drop=0 speed= 5.1x    frame=13234 fps=122 q=32.0 size=   22243kB time=00:09:12.12 bitrate= 330.0kbits/s dup=1 drop=0 speed= 5.1x    frame=13322 fps=123 q=32.0 size=   22357kB time=00:09:15.79 bitrate= 329.5kbits/s dup=1 drop=0 speed=5.11x    frame=13411 fps=123 q=32.0 size=   22504kB time=00:09:19.51 bitrate= 329.5kbits/s dup=1 drop=0 speed=5.12x    frame=13469 fps=123 q=32.0 size=   22624kB time=00:09:21.89 bitrate= 329.8kbits/s dup=1 drop=0 speed=5.12x    frame=13531 fps=123 q=32.0 size=   22720kB time=00:09:24.50 bitrate= 329.7kbits/s dup=1 drop=0 speed=5.12x    frame=13603 fps=123 q=32.0 size=   22840kB time=00:09:27.53 bitrate= 329.7kbits/s dup=1 drop=0 speed=5.13x    frame=13683 fps=123 q=32.0 size=   22957kB time=00:09:30.85 bitrate= 329.4kbits/s dup=1 drop=0 speed=5.13x    frame=13778 fps=123 q=32.0 size=   23083kB time=00:09:34.82 bitrate= 329.0kbits/s dup=1 drop=0 speed=5.14x    frame=13860 fps=123 q=32.0 size=   23163kB time=00:09:38.24 bitrate= 328.2kbits/s dup=1 drop=0 speed=5.15x    frame=13944 fps=124 q=32.0 size=   23277kB time=00:09:41.73 bitrate= 327.8kbits/s dup=1 drop=0 speed=5.16x    frame=14018 fps=124 q=32.0 size=   23367kB time=00:09:44.81 bitrate= 327.3kbits/s dup=1 drop=0 speed=5.16x    frame=14104 fps=124 q=32.0 size=   23424kB time=00:09:48.39 bitrate= 326.1kbits/s dup=1 drop=0 speed=5.17x    frame=14160 fps=124 q=32.0 size=   23517kB time=00:09:50.74 bitrate= 326.1kbits/s dup=1 drop=0 speed=5.17x    frame=14216 fps=124 q=32.0 size=   23599kB time=00:09:53.08 bitrate= 326.0kbits/s dup=1 drop=0 speed=5.17x    frame=14288 fps=124 q=32.0 size=   23689kB time=00:09:56.07 bitrate= 325.6kbits/s dup=1 drop=0 speed=5.17x    frame=14353 fps=124 q=32.0 size=   23783kB time=00:09:58.80 bitrate= 325.4kbits/s dup=1 drop=0 speed=5.17x    frame=14419 fps=124 q=32.0 size=   23915kB time=00:10:01.57 bitrate= 325.7kbits/s dup=1 drop=0 speed=5.17x    frame=14510 fps=124 q=32.0 size=   24052kB time=00:10:05.33 bitrate= 325.5kbits/s dup=1 drop=0 speed=5.18x    frame=14592 fps=124 q=32.0 size=   24196kB time=00:10:08.74 bitrate= 325.6kbits/s dup=1 drop=0 speed=5.19x    frame=14671 fps=125 q=32.0 size=   24357kB time=00:10:12.07 bitrate= 326.0kbits/s dup=1 drop=0 speed= 5.2x    frame=14754 fps=125 q=32.0 size=   24456kB time=00:10:15.53 bitrate= 325.5kbits/s dup=1 drop=0 speed= 5.2x    frame=14840 fps=125 q=32.0 size=   24610kB time=00:10:19.11 bitrate= 325.6kbits/s dup=1 drop=0 speed=5.21x    frame=14919 fps=125 q=32.0 size=   24706kB time=00:10:22.40 bitrate= 325.2kbits/s dup=1 drop=0 speed=5.22x    frame=14986 fps=125 q=32.0 size=   24786kB time=00:10:25.21 bitrate= 324.8kbits/s dup=1 drop=0 speed=5.22x    frame=15042 fps=125 q=32.0 size=   24941kB time=00:10:27.52 bitrate= 325.6kbits/s dup=1 drop=0 speed=5.21x    frame=15113 fps=125 q=32.0 size=   25037kB time=00:10:30.50 bitrate= 325.3kbits/s dup=1 drop=0 speed=5.22x    frame=15190 fps=125 q=32.0 size=   25132kB time=00:10:33.70 bitrate= 324.9kbits/s dup=1 drop=0 speed=5.22x    frame=15271 fps=125 q=32.0 size=   25234kB time=00:10:37.07 bitrate= 324.5kbits/s dup=1 drop=0 speed=5.23x    frame=15351 fps=125 q=32.0 size=   25336kB time=00:10:40.40 bitrate= 324.1kbits/s dup=1 drop=0 speed=5.23x    frame=15428 fps=126 q=32.0 size=   25437kB time=00:10:43.64 bitrate= 323.7kbits/s dup=1 drop=0 speed=5.24x    frame=15509 fps=126 q=32.0 size=   25526kB time=00:10:47.01 bitrate= 323.2kbits/s dup=1 drop=0 speed=5.24x    frame=15561 fps=126 q=32.0 size=   25633kB time=00:10:49.19 bitrate= 323.5kbits/s dup=1 drop=0 speed=5.24x    frame=15607 fps=125 q=32.0 size=   25741kB time=00:10:51.11 bitrate= 323.9kbits/s dup=1 drop=0 speed=5.23x    frame=15659 fps=125 q=32.0 size=   25843kB time=00:10:53.29 bitrate= 324.1kbits/s dup=1 drop=0 speed=5.23x    frame=15706 fps=125 q=32.0 size=   25945kB time=00:10:55.21 bitrate= 324.4kbits/s dup=1 drop=0 speed=5.22x    frame=15743 fps=125 q=32.0 size=   26024kB time=00:10:56.79 bitrate= 324.6kbits/s dup=1 drop=0 speed=5.22x    frame=15793 fps=125 q=32.0 size=   26131kB time=00:10:58.83 bitrate= 324.9kbits/s dup=1 drop=0 speed=5.21x    frame=15844 fps=125 q=32.0 size=   26192kB time=00:11:00.97 bitrate= 324.6kbits/s dup=1 drop=0 speed=5.21x    frame=15898 fps=125 q=32.0 size=   26256kB time=00:11:03.23 bitrate= 324.3kbits/s dup=1 drop=0 speed= 5.2x    frame=15951 fps=125 q=32.0 size=   26319kB time=00:11:05.45 bitrate= 324.0kbits/s dup=1 drop=0 speed= 5.2x    frame=16006 fps=125 q=32.0 size=   26420kB time=00:11:07.75 bitrate= 324.1kbits/s dup=1 drop=0 speed= 5.2x    frame=16089 fps=125 q=32.0 size=   26525kB time=00:11:11.21 bitrate= 323.7kbits/s dup=1 drop=0 speed= 5.2x    frame=16175 fps=125 q=32.0 size=   26605kB time=00:11:14.79 bitrate= 323.0kbits/s dup=1 drop=0 speed=5.21x    frame=16244 fps=125 q=32.0 size=   26711kB time=00:11:17.65 bitrate= 322.9kbits/s dup=1 drop=0 speed=5.21x    frame=16293 fps=125 q=32.0 size=   26795kB time=00:11:19.70 bitrate= 322.9kbits/s dup=1 drop=0 speed=5.21x    frame=16345 fps=125 q=32.0 size=   26893kB time=00:11:21.87 bitrate= 323.1kbits/s dup=1 drop=0 speed=5.21x    frame=16414 fps=125 q=32.0 size=   26994kB time=00:11:24.77 bitrate= 322.9kbits/s dup=1 drop=0 speed=5.21x    frame=16464 fps=125 q=32.0 size=   27114kB time=00:11:26.87 bitrate= 323.4kbits/s dup=1 drop=0 speed= 5.2x    frame=16547 fps=125 q=32.0 size=   27243kB time=00:11:30.32 bitrate= 323.3kbits/s dup=1 drop=0 speed=5.21x    frame=16650 fps=125 q=32.0 size=   27346kB time=00:11:34.59 bitrate= 322.5kbits/s dup=1 drop=0 speed=5.22x    frame=16727 fps=125 q=32.0 size=   27444kB time=00:11:37.83 bitrate= 322.2kbits/s dup=1 drop=0 speed=5.23x    frame=16808 fps=125 q=32.0 size=   27572kB time=00:11:41.16 bitrate= 322.1kbits/s dup=1 drop=0 speed=5.23x    frame=16890 fps=126 q=32.0 size=   27702kB time=00:11:44.61 bitrate= 322.1kbits/s dup=1 drop=0 speed=5.24x    frame=16984 fps=126 q=32.0 size=   27788kB time=00:11:48.54 bitrate= 321.3kbits/s dup=1 drop=0 speed=5.25x    frame=17080 fps=126 q=32.0 size=   27929kB time=00:11:52.55 bitrate= 321.1kbits/s dup=1 drop=0 speed=5.26x    frame=17162 fps=126 q=32.0 size=   28072kB time=00:11:55.96 bitrate= 321.2kbits/s dup=1 drop=0 speed=5.26x    frame=17245 fps=126 q=32.0 size=   28153kB time=00:11:59.46 bitrate= 320.6kbits/s dup=1 drop=0 speed=5.27x    frame=17332 fps=126 q=32.0 size=   28244kB time=00:12:03.05 bitrate= 320.0kbits/s dup=1 drop=0 speed=5.27x    frame=17394 fps=126 q=32.0 size=   28328kB time=00:12:05.65 bitrate= 319.8kbits/s dup=1 drop=0 speed=5.27x    frame=17446 fps=126 q=32.0 size=   28424kB time=00:12:07.78 bitrate= 319.9kbits/s dup=1 drop=0 speed=5.27x    frame=17499 fps=126 q=32.0 size=   28498kB time=00:12:10.04 bitrate= 319.8kbits/s dup=1 drop=0 speed=5.26x    frame=17560 fps=126 q=32.0 size=   28599kB time=00:12:12.56 bitrate= 319.8kbits/s dup=1 drop=0 speed=5.26x    frame=17644 fps=126 q=32.0 size=   28729kB time=00:12:16.06 bitrate= 319.7kbits/s dup=1 drop=0 speed=5.27x    frame=17686 fps=126 q=32.0 size=   28873kB time=00:12:17.81 bitrate= 320.6kbits/s dup=1 drop=0 speed=5.26x    frame=17751 fps=126 q=32.0 size=   29017kB time=00:12:20.50 bitrate= 321.0kbits/s dup=1 drop=0 speed=5.26x    frame=17825 fps=126 q=32.0 size=   29123kB time=00:12:23.61 bitrate= 320.8kbits/s dup=1 drop=0 speed=5.27x    frame=17883 fps=126 q=32.0 size=   29217kB time=00:12:26.04 bitrate= 320.8kbits/s dup=1 drop=0 speed=5.26x    frame=17940 fps=126 q=32.0 size=   29308kB time=00:12:28.39 bitrate= 320.8kbits/s dup=1 drop=0 speed=5.26x    frame=18000 fps=126 q=32.0 size=   29419kB time=00:12:30.91 bitrate= 320.9kbits/s dup=1 drop=0 speed=5.26x    frame=18048 fps=126 q=32.0 size=   29546kB time=00:12:32.91 bitrate= 321.5kbits/s dup=1 drop=0 speed=5.26x    frame=18139 fps=126 q=32.0 size=   29639kB time=00:12:36.71 bitrate= 320.9kbits/s dup=1 drop=0 speed=5.26x    frame=18228 fps=126 q=32.0 size=   29718kB time=00:12:40.42 bitrate= 320.1kbits/s dup=1 drop=0 speed=5.27x    frame=18311 fps=126 q=32.0 size=   29830kB time=00:12:43.88 bitrate= 319.9kbits/s dup=1 drop=0 speed=5.28x    frame=18392 fps=127 q=32.0 size=   29900kB time=00:12:47.25 bitrate= 319.2kbits/s dup=1 drop=0 speed=5.28x    frame=18481 fps=127 q=32.0 size=   30002kB time=00:12:50.96 bitrate= 318.8kbits/s dup=1 drop=0 speed=5.29x    frame=18567 fps=127 q=32.0 size=   30068kB time=00:12:54.59 bitrate= 318.0kbits/s dup=1 drop=0 speed=5.29x    frame=18647 fps=127 q=32.0 size=   30151kB time=00:12:57.87 bitrate= 317.5kbits/s dup=1 drop=0 speed= 5.3x    frame=18692 fps=127 q=32.0 size=   30226kB time=00:12:59.75 bitrate= 317.5kbits/s dup=1 drop=0 speed=5.29x    frame=18738 fps=127 q=32.0 size=   30313kB time=00:13:01.67 bitrate= 317.7kbits/s dup=1 drop=0 speed=5.29x    frame=18817 fps=127 q=32.0 size=   30390kB time=00:13:05.00 bitrate= 317.1kbits/s dup=1 drop=0 speed=5.29x    frame=18894 fps=127 q=32.0 size=   30562kB time=00:13:08.20 bitrate= 317.6kbits/s dup=1 drop=0 speed= 5.3x    frame=18978 fps=127 q=32.0 size=   30695kB time=00:13:11.70 bitrate= 317.6kbits/s dup=1 drop=0 speed= 5.3x    frame=19095 fps=127 q=32.0 size=   30770kB time=00:13:16.56 bitrate= 316.4kbits/s dup=1 drop=0 speed=5.32x    frame=19192 fps=128 q=32.0 size=   30867kB time=00:13:20.61 bitrate= 315.8kbits/s dup=1 drop=0 speed=5.33x    frame=19287 fps=128 q=32.0 size=   30987kB time=00:13:24.58 bitrate= 315.5kbits/s dup=1 drop=0 speed=5.33x    frame=19391 fps=128 q=32.0 size=   31058kB time=00:13:28.93 bitrate= 314.5kbits/s dup=1 drop=0 speed=5.35x    frame=19492 fps=128 q=32.0 size=   31165kB time=00:13:33.16 bitrate= 314.0kbits/s dup=1 drop=0 speed=5.36x    frame=19590 fps=129 q=32.0 size=   31240kB time=00:13:37.21 bitrate= 313.2kbits/s dup=1 drop=0 speed=5.36x    frame=19677 fps=129 q=32.0 size=   31347kB time=00:13:40.84 bitrate= 312.8kbits/s dup=1 drop=0 speed=5.37x    frame=19764 fps=129 q=32.0 size=   31436kB time=00:13:44.47 bitrate= 312.4kbits/s dup=1 drop=0 speed=5.38x    frame=19826 fps=129 q=32.0 size=   31499kB time=00:13:47.07 bitrate= 312.0kbits/s dup=1 drop=0 speed=5.38x    frame=19881 fps=129 q=32.0 size=   31571kB time=00:13:49.37 bitrate= 311.8kbits/s dup=1 drop=0 speed=5.37x    frame=19974 fps=129 q=32.0 size=   31697kB time=00:13:53.21 bitrate= 311.6kbits/s dup=1 drop=0 speed=5.38x    frame=20066 fps=129 q=32.0 size=   31764kB time=00:13:57.05 bitrate= 310.9kbits/s dup=1 drop=0 speed=5.39x    frame=20153 fps=129 q=32.0 size=   31838kB time=00:14:00.68 bitrate= 310.2kbits/s dup=1 drop=0 speed=5.39x    frame=20238 fps=129 q=32.0 size=   31928kB time=00:14:04.22 bitrate= 309.8kbits/s dup=1 drop=0 speed= 5.4x    frame=20296 fps=129 q=32.0 size=   32031kB time=00:14:06.65 bitrate= 309.9kbits/s dup=1 drop=0 speed= 5.4x    frame=20342 fps=129 q=32.0 size=   32138kB time=00:14:08.57 bitrate= 310.3kbits/s dup=1 drop=0 speed=5.39x    frame=20397 fps=129 q=32.0 size=   32281kB time=00:14:10.88 bitrate= 310.8kbits/s dup=1 drop=0 speed=5.39x    frame=20449 fps=129 q=32.0 size=   32395kB time=00:14:13.05 bitrate= 311.1kbits/s dup=1 drop=0 speed=5.38x    frame=20518 fps=129 q=32.0 size=   32552kB time=00:14:15.91 bitrate= 311.6kbits/s dup=1 drop=0 speed=5.39x    frame=20585 fps=129 q=32.0 size=   32693kB time=00:14:18.73 bitrate= 311.9kbits/s dup=1 drop=0 speed=5.39x    frame=20633 fps=129 q=32.0 size=   32809kB time=00:14:20.73 bitrate= 312.3kbits/s dup=1 drop=0 speed=5.38x    frame=20692 fps=129 q=32.0 size=   32919kB time=00:14:23.16 bitrate= 312.4kbits/s dup=1 drop=0 speed=5.38x    frame=20741 fps=129 q=32.0 size=   32987kB time=00:14:25.21 bitrate= 312.3kbits/s dup=1 drop=0 speed=5.37x    frame=20782 fps=129 q=32.0 size=   33062kB time=00:14:26.96 bitrate= 312.4kbits/s dup=1 drop=0 speed=5.37x    frame=20826 fps=128 q=32.0 size=   33145kB time=00:14:28.75 bitrate= 312.5kbits/s dup=1 drop=0 speed=5.36x    frame=20867 fps=128 q=32.0 size=   33237kB time=00:14:30.46 bitrate= 312.8kbits/s dup=1 drop=0 speed=5.35x    frame=20914 fps=128 q=32.0 size=   33354kB time=00:14:32.42 bitrate= 313.2kbits/s dup=1 drop=0 speed=5.35x    frame=20972 fps=128 q=32.0 size=   33483kB time=00:14:34.90 bitrate= 313.5kbits/s dup=1 drop=0 speed=5.35x    frame=21052 fps=128 q=32.0 size=   33567kB time=00:14:38.18 bitrate= 313.1kbits/s dup=1 drop=0 speed=5.35x    frame=21120 fps=128 q=32.0 size=   33686kB time=00:14:41.04 bitrate= 313.2kbits/s dup=1 drop=0 speed=5.35x    frame=21193 fps=128 q=32.0 size=   33778kB time=00:14:44.07 bitrate= 313.0kbits/s dup=1 drop=0 speed=5.36x    frame=21271 fps=128 q=32.0 size=   33908kB time=00:14:47.31 bitrate= 313.1kbits/s dup=1 drop=0 speed=5.36x    frame=21335 fps=128 q=32.0 size=   34044kB time=00:14:50.00 bitrate= 313.4kbits/s dup=1 drop=0 speed=5.36x    frame=21411 fps=129 q=32.0 size=   34196kB time=00:14:53.16 bitrate= 313.6kbits/s dup=1 drop=0 speed=5.36x    frame=21483 fps=129 q=32.0 size=   34330kB time=00:14:56.19 bitrate= 313.8kbits/s dup=1 drop=0 speed=5.36x    frame=21550 fps=129 q=32.0 size=   34489kB time=00:14:58.96 bitrate= 314.3kbits/s dup=1 drop=0 speed=5.36x    frame=21638 fps=129 q=32.0 size=   34624kB time=00:15:02.63 bitrate= 314.2kbits/s dup=1 drop=0 speed=5.37x    frame=21724 fps=129 q=32.0 size=   34692kB time=00:15:06.21 bitrate= 313.6kbits/s dup=1 drop=0 speed=5.37x    frame=21782 fps=129 q=32.0 size=   34781kB time=00:15:08.65 bitrate= 313.6kbits/s dup=1 drop=0 speed=5.37x    frame=21840 fps=129 q=32.0 size=   34875kB time=00:15:11.08 bitrate= 313.6kbits/s dup=1 drop=0 speed=5.37x    frame=21885 fps=129 q=32.0 size=   34945kB time=00:15:12.91 bitrate= 313.6kbits/s dup=1 drop=0 speed=5.36x    frame=21934 fps=129 q=32.0 size=   35019kB time=00:15:15.00 bitrate= 313.5kbits/s dup=1 drop=0 speed=5.36x    frame=22000 fps=128 q=32.0 size=   35128kB time=00:15:17.73 bitrate= 313.6kbits/s dup=1 drop=0 speed=5.36x    frame=22081 fps=129 q=32.0 size=   35194kB time=00:15:21.11 bitrate= 313.0kbits/s dup=1 drop=0 speed=5.36x    frame=22168 fps=129 q=32.0 size=   35294kB time=00:15:24.73 bitrate= 312.7kbits/s dup=1 drop=0 speed=5.37x    frame=22255 fps=129 q=32.0 size=   35443kB time=00:15:28.40 bitrate= 312.7kbits/s dup=1 drop=0 speed=5.38x    frame=22337 fps=129 q=32.0 size=   35548kB time=00:15:31.81 bitrate= 312.5kbits/s dup=1 drop=0 speed=5.38x    frame=22391 fps=129 q=32.0 size=   35640kB time=00:15:34.03 bitrate= 312.6kbits/s dup=1 drop=0 speed=5.38x    frame=22445 fps=129 q=32.0 size=   35724kB time=00:15:36.29 bitrate= 312.6kbits/s dup=1 drop=0 speed=5.37x    frame=22520 fps=129 q=32.0 size=   35835kB time=00:15:39.41 bitrate= 312.5kbits/s dup=1 drop=0 speed=5.38x    frame=22620 fps=129 q=32.0 size=   35931kB time=00:15:43.59 bitrate= 311.9kbits/s dup=1 drop=0 speed=5.38x    frame=22703 fps=129 q=32.0 size=   36011kB time=00:15:47.05 bitrate= 311.5kbits/s dup=1 drop=0 speed=5.39x    frame=22786 fps=129 q=32.0 size=   36170kB time=00:15:50.50 bitrate= 311.7kbits/s dup=1 drop=0 speed=5.39x    frame=22877 fps=129 q=32.0 size=   36245kB time=00:15:54.30 bitrate= 311.1kbits/s dup=1 drop=0 speed= 5.4x    frame=22937 fps=129 q=32.0 size=   36357kB time=00:15:56.82 bitrate= 311.3kbits/s dup=1 drop=0 speed= 5.4x    frame=22989 fps=129 q=32.0 size=   36478kB time=00:15:58.99 bitrate= 311.6kbits/s dup=1 drop=0 speed=5.39x    frame=23031 fps=129 q=32.0 size=   36568kB time=00:16:00.74 bitrate= 311.8kbits/s dup=1 drop=0 speed=5.39x    frame=23067 fps=129 q=32.0 size=   36635kB time=00:16:02.24 bitrate= 311.9kbits/s dup=1 drop=0 speed=5.38x    frame=23129 fps=129 q=32.0 size=   36732kB time=00:16:04.84 bitrate= 311.9kbits/s dup=1 drop=0 speed=5.38x    frame=23178 fps=129 q=32.0 size=   36809kB time=00:16:06.84 bitrate= 311.9kbits/s dup=1 drop=0 speed=5.37x    frame=23234 fps=129 q=32.0 size=   36883kB time=00:16:09.19 bitrate= 311.8kbits/s dup=1 drop=0 speed=5.37x    frame=23311 fps=129 q=32.0 size=   37000kB time=00:16:12.39 bitrate= 311.7kbits/s dup=1 drop=0 speed=5.38x    frame=23381 fps=129 q=32.0 size=   37094kB time=00:16:15.33 bitrate= 311.6kbits/s dup=1 drop=0 speed=5.38x    frame=23446 fps=129 q=32.0 size=   37186kB time=00:16:18.02 bitrate= 311.5kbits/s dup=1 drop=0 speed=5.38x    frame=23496 fps=129 q=32.0 size=   37355kB time=00:16:20.11 bitrate= 312.2kbits/s dup=1 drop=0 speed=5.37x    frame=23577 fps=129 q=32.0 size=   37461kB time=00:16:23.53 bitrate= 312.0kbits/s dup=1 drop=0 speed=5.38x    frame=23649 fps=129 q=32.0 size=   37579kB time=00:16:26.56 bitrate= 312.0kbits/s dup=1 drop=0 speed=5.38x    frame=23732 fps=129 q=32.0 size=   37700kB time=00:16:29.97 bitrate= 312.0kbits/s dup=1 drop=0 speed=5.38x    frame=23802 fps=129 q=32.0 size=   37803kB time=00:16:32.91 bitrate= 311.9kbits/s dup=1 drop=0 speed=5.38x    frame=23867 fps=129 q=32.0 size=   37902kB time=00:16:35.60 bitrate= 311.9kbits/s dup=1 drop=0 speed=5.38x    frame=23910 fps=129 q=32.0 size=   38021kB time=00:16:37.39 bitrate= 312.3kbits/s dup=1 drop=0 speed=5.38x    frame=24000 fps=129 q=32.0 size=   38094kB time=00:16:41.15 bitrate= 311.7kbits/s dup=1 drop=0 speed=5.38x    frame=24080 fps=129 q=32.0 size=   38192kB time=00:16:44.48 bitrate= 311.5kbits/s dup=1 drop=0 speed=5.39x    frame=24136 fps=129 q=32.0 size=   38285kB time=00:16:46.82 bitrate= 311.5kbits/s dup=1 drop=0 speed=5.38x    frame=24207 fps=129 q=32.0 size=   38385kB time=00:16:49.81 bitrate= 311.4kbits/s dup=1 drop=0 speed=5.39x    frame=24266 fps=129 q=32.0 size=   38475kB time=00:16:52.24 bitrate= 311.4kbits/s dup=1 drop=0 speed=5.38x    frame=24353 fps=129 q=32.0 size=   38586kB time=00:16:55.87 bitrate= 311.2kbits/s dup=1 drop=0 speed=5.39x    frame=24434 fps=129 q=32.0 size=   38674kB time=00:16:59.24 bitrate= 310.8kbits/s dup=1 drop=0 speed=5.39x    frame=24514 fps=129 q=32.0 size=   38750kB time=00:17:02.57 bitrate= 310.4kbits/s dup=1 drop=0 speed=5.39x    frame=24583 fps=129 q=32.0 size=   38854kB time=00:17:05.47 bitrate= 310.4kbits/s dup=1 drop=0 speed= 5.4x    frame=24645 fps=129 q=32.0 size=   38932kB time=00:17:08.07 bitrate= 310.2kbits/s dup=1 drop=0 speed= 5.4x    frame=24745 fps=130 q=32.0 size=   39043kB time=00:17:12.25 bitrate= 309.8kbits/s dup=1 drop=0 speed= 5.4x    frame=24842 fps=130 q=32.0 size=   39152kB time=00:17:16.26 bitrate= 309.5kbits/s dup=1 drop=0 speed=5.41x    frame=24935 fps=130 q=32.0 size=   39216kB time=00:17:20.19 bitrate= 308.8kbits/s dup=1 drop=0 speed=5.42x    frame=25007 fps=130 q=32.0 size=   39333kB time=00:17:23.17 bitrate= 308.9kbits/s dup=1 drop=0 speed=5.42x    frame=25057 fps=130 q=32.0 size=   39417kB time=00:17:25.22 bitrate= 308.9kbits/s dup=1 drop=0 speed=5.41x    frame=25102 fps=130 q=32.0 size=   39510kB time=00:17:27.10 bitrate= 309.1kbits/s dup=1 drop=0 speed=5.41x    frame=25187 fps=130 q=32.0 size=   39619kB time=00:17:30.68 bitrate= 308.9kbits/s dup=1 drop=0 speed=5.41x    frame=25299 fps=130 q=32.0 size=   39706kB time=00:17:35.33 bitrate= 308.2kbits/s dup=1 drop=0 speed=5.42x    frame=25412 fps=130 q=32.0 size=   39779kB time=00:17:40.07 bitrate= 307.4kbits/s dup=1 drop=0 speed=5.43x    frame=25509 fps=130 q=32.0 size=   39868kB time=00:17:44.12 bitrate= 306.9kbits/s dup=1 drop=0 speed=5.44x    frame=25605 fps=131 q=32.0 size=   39985kB time=00:17:48.09 bitrate= 306.7kbits/s dup=1 drop=0 speed=5.45x    frame=25707 fps=131 q=32.0 size=   40063kB time=00:17:52.36 bitrate= 306.1kbits/s dup=1 drop=0 speed=5.45x    frame=25794 fps=131 q=32.0 size=   40177kB time=00:17:55.99 bitrate= 305.9kbits/s dup=1 drop=0 speed=5.46x    frame=25868 fps=131 q=32.0 size=   40261kB time=00:17:59.06 bitrate= 305.7kbits/s dup=1 drop=0 speed=5.46x    frame=25943 fps=131 q=32.0 size=   40334kB time=00:18:02.21 bitrate= 305.3kbits/s dup=1 drop=0 speed=5.46x    frame=26020 fps=131 q=32.0 size=   40433kB time=00:18:05.41 bitrate= 305.2kbits/s dup=1 drop=0 speed=5.46x    frame=26088 fps=131 q=32.0 size=   40541kB time=00:18:08.23 bitrate= 305.2kbits/s dup=1 drop=0 speed=5.46x    frame=26149 fps=131 q=32.0 size=   40681kB time=00:18:10.79 bitrate= 305.5kbits/s dup=1 drop=0 speed=5.46x    frame=26215 fps=131 q=32.0 size=   40821kB time=00:18:13.56 bitrate= 305.8kbits/s dup=1 drop=0 speed=5.46x    frame=26286 fps=131 q=32.0 size=   40946kB time=00:18:16.51 bitrate= 305.9kbits/s dup=1 drop=0 speed=5.46x    frame=26365 fps=131 q=32.0 size=   41070kB time=00:18:19.79 bitrate= 305.9kbits/s dup=1 drop=0 speed=5.47x    frame=26451 fps=131 q=32.0 size=   41134kB time=00:18:23.38 bitrate= 305.4kbits/s dup=1 drop=0 speed=5.47x    frame=26536 fps=131 q=32.0 size=   41256kB time=00:18:26.92 bitrate= 305.3kbits/s dup=1 drop=0 speed=5.48x    frame=26619 fps=131 q=32.0 size=   41323kB time=00:18:30.37 bitrate= 304.9kbits/s dup=1 drop=0 speed=5.48x    frame=26710 fps=131 q=32.0 size=   41428kB time=00:18:34.21 bitrate= 304.6kbits/s dup=1 drop=0 speed=5.48x    frame=26787 fps=131 q=32.0 size=   41561kB time=00:18:37.37 bitrate= 304.7kbits/s dup=1 drop=0 speed=5.49x    frame=26859 fps=132 q=32.0 size=   41644kB time=00:18:40.40 bitrate= 304.5kbits/s dup=1 drop=0 speed=5.49x    frame=26953 fps=132 q=32.0 size=   41705kB time=00:18:44.33 bitrate= 303.9kbits/s dup=1 drop=0 speed=5.49x    frame=27013 fps=132 q=32.0 size=   41808kB time=00:18:46.80 bitrate= 303.9kbits/s dup=1 drop=0 speed=5.49x    frame=27066 fps=132 q=32.0 size=   41891kB time=00:18:49.02 bitrate= 304.0kbits/s dup=1 drop=0 speed=5.49x    frame=27119 fps=132 q=32.0 size=   41968kB time=00:18:51.24 bitrate= 303.9kbits/s dup=1 drop=0 speed=5.49x    frame=27174 fps=131 q=32.0 size=   42049kB time=00:18:53.54 bitrate= 303.9kbits/s dup=1 drop=0 speed=5.48x    frame=27246 fps=131 q=32.0 size=   42154kB time=00:18:56.53 bitrate= 303.8kbits/s dup=1 drop=0 speed=5.48x    frame=27310 fps=131 q=32.0 size=   42221kB time=00:18:59.22 bitrate= 303.6kbits/s dup=1 drop=0 speed=5.48x    frame=27363 fps=131 q=32.0 size=   42297kB time=00:19:01.39 bitrate= 303.6kbits/s dup=1 drop=0 speed=5.48x    frame=27408 fps=131 q=32.0 size=   42372kB time=00:19:03.31 bitrate= 303.6kbits/s dup=1 drop=0 speed=5.48x    frame=27466 fps=131 q=32.0 size=   42482kB time=00:19:05.70 bitrate= 303.8kbits/s dup=1 drop=0 speed=5.47x    frame=27519 fps=131 q=32.0 size=   42564kB time=00:19:07.92 bitrate= 303.7kbits/s dup=1 drop=0 speed=5.47x    frame=27579 fps=131 q=32.0 size=   42638kB time=00:19:10.44 bitrate= 303.6kbits/s dup=1 drop=0 speed=5.47x    frame=27671 fps=131 q=32.0 size=   42759kB time=00:19:14.28 bitrate= 303.5kbits/s dup=1 drop=0 speed=5.48x    frame=27744 fps=131 q=32.0 size=   42843kB time=00:19:17.31 bitrate= 303.3kbits/s dup=1 drop=0 speed=5.48x    frame=27799 fps=131 q=32.0 size=   42959kB time=00:19:19.61 bitrate= 303.5kbits/s dup=1 drop=0 speed=5.47x    frame=27851 fps=131 q=32.0 size=   43062kB time=00:19:21.75 bitrate= 303.6kbits/s dup=1 drop=0 speed=5.47x    frame=27892 fps=131 q=32.0 size=   43157kB time=00:19:23.49 bitrate= 303.9kbits/s dup=1 drop=0 speed=5.47x    frame=27937 fps=131 q=32.0 size=   43234kB time=00:19:25.37 bitrate= 303.9kbits/s dup=1 drop=0 speed=5.46x    frame=27990 fps=131 q=32.0 size=   43332kB time=00:19:27.55 bitrate= 304.0kbits/s dup=1 drop=0 speed=5.46x    frame=28053 fps=131 q=32.0 size=   43403kB time=00:19:30.19 bitrate= 303.8kbits/s dup=1 drop=0 speed=5.46x    frame=28116 fps=131 q=32.0 size=   43477kB time=00:19:32.84 bitrate= 303.7kbits/s dup=1 drop=0 speed=5.46x    frame=28173 fps=131 q=32.0 size=   43551kB time=00:19:35.19 bitrate= 303.6kbits/s dup=1 drop=0 speed=5.46x    frame=28235 fps=131 q=32.0 size=   43665kB time=00:19:37.79 bitrate= 303.7kbits/s dup=1 drop=0 speed=5.45x    frame=28317 fps=131 q=32.0 size=   43751kB time=00:19:41.20 bitrate= 303.4kbits/s dup=1 drop=0 speed=5.46x    frame=28409 fps=131 q=32.0 size=   43857kB time=00:19:45.04 bitrate= 303.2kbits/s dup=1 drop=0 speed=5.46x    frame=28493 fps=131 q=32.0 size=   43924kB time=00:19:48.54 bitrate= 302.7kbits/s dup=1 drop=0 speed=5.47x    frame=28556 fps=131 q=32.0 size=   44041kB time=00:19:51.19 bitrate= 302.9kbits/s dup=1 drop=0 speed=5.47x    frame=28624 fps=131 q=32.0 size=   44176kB time=00:19:54.00 bitrate= 303.1kbits/s dup=1 drop=0 speed=5.47x    frame=28687 fps=131 q=32.0 size=   44282kB time=00:19:56.65 bitrate= 303.1kbits/s dup=1 drop=0 speed=5.46x    frame=28728 fps=131 q=32.0 size=   44429kB time=00:19:58.35 bitrate= 303.7kbits/s dup=1 drop=0 speed=5.46x    frame=28781 fps=131 q=32.0 size=   44563kB time=00:20:00.57 bitrate= 304.1kbits/s dup=1 drop=0 speed=5.46x    frame=28856 fps=131 q=32.0 size=   44661kB time=00:20:03.69 bitrate= 304.0kbits/s dup=1 drop=0 speed=5.46x    frame=28923 fps=131 q=32.0 size=   44741kB time=00:20:06.46 bitrate= 303.8kbits/s dup=1 drop=0 speed=5.46x    frame=28976 fps=131 q=32.0 size=   44836kB time=00:20:08.72 bitrate= 303.9kbits/s dup=1 drop=0 speed=5.46x    frame=29067 fps=131 q=32.0 size=   44951kB time=00:20:12.48 bitrate= 303.7kbits/s dup=1 drop=0 speed=5.46x    frame=29142 fps=131 q=32.0 size=   45090kB time=00:20:15.63 bitrate= 303.9kbits/s dup=1 drop=0 speed=5.46x    frame=29251 fps=131 q=32.0 size=   45160kB time=00:20:20.16 bitrate= 303.2kbits/s dup=1 drop=0 speed=5.47x    frame=29349 fps=131 q=32.0 size=   45299kB time=00:20:24.25 bitrate= 303.1kbits/s dup=1 drop=0 speed=5.48x    frame=29455 fps=131 q=32.0 size=   45371kB time=00:20:28.69 bitrate= 302.5kbits/s dup=1 drop=0 speed=5.48x    frame=29553 fps=132 q=32.0 size=   45435kB time=00:20:32.74 bitrate= 301.9kbits/s dup=1 drop=0 speed=5.49x    frame=29614 fps=132 q=32.0 size=   45557kB time=00:20:35.30 bitrate= 302.1kbits/s dup=1 drop=0 speed=5.49x    frame=29705 fps=132 q=32.0 size=   45621kB time=00:20:39.10 bitrate= 301.6kbits/s dup=1 drop=0 speed=5.49x    frame=29772 fps=132 q=32.0 size=   45708kB time=00:20:41.92 bitrate= 301.5kbits/s dup=1 drop=0 speed=5.49x    frame=29835 fps=132 q=32.0 size=   45767kB time=00:20:44.52 bitrate= 301.3kbits/s dup=1 drop=0 speed=5.49x    frame=29883 fps=132 q=32.0 size=   45857kB time=00:20:46.52 bitrate= 301.4kbits/s dup=1 drop=0 speed=5.49x    frame=29976 fps=132 q=32.0 size=   45959kB time=00:20:50.41 bitrate= 301.1kbits/s dup=1 drop=0 speed=5.49x    frame=30055 fps=132 q=32.0 size=   46058kB time=00:20:53.69 bitrate= 301.0kbits/s dup=1 drop=0 speed= 5.5x    frame=30119 fps=132 q=32.0 size=   46180kB time=00:20:56.38 bitrate= 301.1kbits/s dup=1 drop=0 speed= 5.5x    frame=30176 fps=132 q=32.0 size=   46263kB time=00:20:58.73 bitrate= 301.1kbits/s dup=1 drop=0 speed=5.49x    frame=30232 fps=132 q=32.0 size=   46353kB time=00:21:01.12 bitrate= 301.1kbits/s dup=1 drop=0 speed=5.49x    frame=30323 fps=132 q=32.0 size=   46469kB time=00:21:04.87 bitrate= 301.0kbits/s dup=1 drop=0 speed= 5.5x    frame=30419 fps=132 q=32.0 size=   46552kB time=00:21:08.88 bitrate= 300.5kbits/s dup=1 drop=0 speed= 5.5x    frame=30504 fps=132 q=32.0 size=   46675kB time=00:21:12.42 bitrate= 300.5kbits/s dup=1 drop=0 speed=5.51x    frame=30604 fps=132 q=32.0 size=   46773kB time=00:21:16.60 bitrate= 300.1kbits/s dup=1 drop=0 speed=5.51x    frame=30673 fps=132 q=32.0 size=   46867kB time=00:21:19.46 bitrate= 300.1kbits/s dup=1 drop=0 speed=5.51x    frame=30764 fps=132 q=32.0 size=   46978kB time=00:21:23.26 bitrate= 299.9kbits/s dup=1 drop=0 speed=5.52x    frame=30861 fps=132 q=32.0 size=   47081kB time=00:21:27.31 bitrate= 299.6kbits/s dup=1 drop=0 speed=5.52x    frame=30952 fps=132 q=32.0 size=   47153kB time=00:21:31.11 bitrate= 299.2kbits/s dup=1 drop=0 speed=5.53x    frame=31032 fps=133 q=32.0 size=   47225kB time=00:21:34.44 bitrate= 298.9kbits/s dup=1 drop=0 speed=5.53x    frame=31102 fps=133 q=32.0 size=   47337kB time=00:21:37.38 bitrate= 298.9kbits/s dup=1 drop=0 speed=5.53x    frame=31152 fps=132 q=32.0 size=   47414kB time=00:21:39.43 bitrate= 298.9kbits/s dup=1 drop=0 speed=5.53x    frame=31191 fps=132 q=32.0 size=   47497kB time=00:21:41.09 bitrate= 299.1kbits/s dup=1 drop=0 speed=5.52x    frame=31232 fps=132 q=32.0 size=   47558kB time=00:21:42.80 bitrate= 299.0kbits/s dup=1 drop=0 speed=5.52x    frame=31281 fps=132 q=32.0 size=   47623kB time=00:21:44.81 bitrate= 299.0kbits/s dup=1 drop=0 speed=5.51x    frame=31333 fps=132 q=32.0 size=   47726kB time=00:21:47.03 bitrate= 299.1kbits/s dup=1 drop=0 speed=5.51x    frame=31381 fps=132 q=32.0 size=   47810kB time=00:21:48.99 bitrate= 299.2kbits/s dup=1 drop=0 speed=5.51x    frame=31437 fps=132 q=32.0 size=   47914kB time=00:21:51.33 bitrate= 299.3kbits/s dup=1 drop=0 speed= 5.5x    frame=31495 fps=132 q=32.0 size=   48041kB time=00:21:53.77 bitrate= 299.6kbits/s dup=1 drop=0 speed= 5.5x    frame=31543 fps=132 q=32.0 size=   48163kB time=00:21:55.77 bitrate= 299.9kbits/s dup=1 drop=0 speed= 5.5x    frame=31587 fps=132 q=32.0 size=   48289kB time=00:21:57.61 bitrate= 300.2kbits/s dup=1 drop=0 speed=5.49x    frame=31631 fps=132 q=32.0 size=   48413kB time=00:21:59.40 bitrate= 300.6kbits/s dup=1 drop=0 speed=5.49x    frame=31678 fps=132 q=32.0 size=   48565kB time=00:22:01.40 bitrate= 301.1kbits/s dup=1 drop=0 speed=5.49x    frame=31723 fps=131 q=32.0 size=   48668kB time=00:22:03.24 bitrate= 301.3kbits/s dup=1 drop=0 speed=5.48x    frame=31774 fps=131 q=32.0 size=   48775kB time=00:22:05.41 bitrate= 301.5kbits/s dup=1 drop=0 speed=5.48x    frame=31840 fps=131 q=32.0 size=   48896kB time=00:22:08.15 bitrate= 301.6kbits/s dup=1 drop=0 speed=5.48x    frame=31882 fps=131 q=32.0 size=   49006kB time=00:22:09.89 bitrate= 301.9kbits/s dup=1 drop=0 speed=5.48x    frame=31926 fps=131 q=32.0 size=   49132kB time=00:22:11.73 bitrate= 302.2kbits/s dup=1 drop=0 speed=5.47x    frame=31978 fps=131 q=32.0 size=   49253kB time=00:22:13.91 bitrate= 302.5kbits/s dup=1 drop=0 speed=5.47x    frame=32030 fps=131 q=32.0 size=   49405kB time=00:22:16.08 bitrate= 302.9kbits/s dup=1 drop=0 speed=5.47x    frame=32103 fps=131 q=32.0 size=   49522kB time=00:22:19.11 bitrate= 302.9kbits/s dup=1 drop=0 speed=5.47x    frame=32164 fps=131 q=32.0 size=   49644kB time=00:22:21.67 bitrate= 303.1kbits/s dup=1 drop=0 speed=5.47x    frame=32219 fps=131 q=32.0 size=   49754kB time=00:22:23.93 bitrate= 303.3kbits/s dup=1 drop=0 speed=5.46x    frame=32266 fps=131 q=32.0 size=   49896kB time=00:22:25.89 bitrate= 303.7kbits/s dup=1 drop=0 speed=5.46x    frame=32312 fps=131 q=32.0 size=   49985kB time=00:22:27.81 bitrate= 303.8kbits/s dup=1 drop=0 speed=5.46x    frame=32357 fps=131 q=32.0 size=   50092kB time=00:22:29.69 bitrate= 304.0kbits/s dup=1 drop=0 speed=5.45x    frame=32424 fps=131 q=32.0 size=   50245kB time=00:22:32.51 bitrate= 304.3kbits/s dup=1 drop=0 speed=5.45x    frame=32478 fps=131 q=32.0 size=   50373kB time=00:22:34.73 bitrate= 304.6kbits/s dup=1 drop=0 speed=5.45x    frame=32539 fps=131 q=32.0 size=   50522kB time=00:22:37.29 bitrate= 304.9kbits/s dup=1 drop=0 speed=5.45x    frame=32595 fps=131 q=32.0 size=   50623kB time=00:22:39.63 bitrate= 305.0kbits/s dup=1 drop=0 speed=5.45x    frame=32646 fps=130 q=32.0 size=   50778kB time=00:22:41.77 bitrate= 305.5kbits/s dup=1 drop=0 speed=5.44x    frame=32683 fps=130 q=32.0 size=   50895kB time=00:22:43.30 bitrate= 305.8kbits/s dup=1 drop=0 speed=5.44x    frame=32747 fps=130 q=32.0 size=   51038kB time=00:22:45.99 bitrate= 306.1kbits/s dup=1 drop=0 speed=5.44x    frame=32794 fps=130 q=32.0 size=   51130kB time=00:22:47.95 bitrate= 306.2kbits/s dup=1 drop=0 speed=5.43x    frame=32858 fps=130 q=32.0 size=   51284kB time=00:22:50.60 bitrate= 306.5kbits/s dup=1 drop=0 speed=5.43x    frame=32912 fps=130 q=32.0 size=   51394kB time=00:22:52.86 bitrate= 306.7kbits/s dup=1 drop=0 speed=5.43x    frame=32994 fps=130 q=32.0 size=   51514kB time=00:22:56.27 bitrate= 306.6kbits/s dup=1 drop=0 speed=5.43x    frame=33057 fps=130 q=32.0 size=   51642kB time=00:22:58.92 bitrate= 306.8kbits/s dup=1 drop=0 speed=5.43x    frame=33118 fps=130 q=32.0 size=   51746kB time=00:23:01.48 bitrate= 306.8kbits/s dup=1 drop=0 speed=5.43x    frame=33176 fps=130 q=32.0 size=   51849kB time=00:23:03.87 bitrate= 306.9kbits/s dup=1 drop=0 speed=5.43x    frame=33232 fps=130 q=32.0 size=   51973kB time=00:23:06.21 bitrate= 307.1kbits/s dup=1 drop=0 speed=5.43x    frame=33279 fps=130 q=32.0 size=   52072kB time=00:23:08.13 bitrate= 307.3kbits/s dup=1 drop=0 speed=5.42x    frame=33323 fps=130 q=32.0 size=   52175kB time=00:23:10.01 bitrate= 307.5kbits/s dup=1 drop=0 speed=5.42x    frame=33391 fps=130 q=32.0 size=   52257kB time=00:23:12.83 bitrate= 307.4kbits/s dup=1 drop=0 speed=5.42x    frame=33473 fps=130 q=32.0 size=   52397kB time=00:23:16.28 bitrate= 307.4kbits/s dup=1 drop=0 speed=5.42x    frame=33552 fps=130 q=32.0 size=   52509kB time=00:23:19.57 bitrate= 307.3kbits/s dup=1 drop=0 speed=5.43x    frame=33614 fps=130 q=32.0 size=   52642kB time=00:23:22.13 bitrate= 307.6kbits/s dup=1 drop=0 speed=5.42x    frame=33708 fps=130 q=32.0 size=   52776kB time=00:23:26.05 bitrate= 307.5kbits/s dup=1 drop=0 speed=5.43x    frame=33795 fps=130 q=32.0 size=   52885kB time=00:23:29.68 bitrate= 307.3kbits/s dup=1 drop=0 speed=5.43x    frame=33861 fps=130 q=32.0 size=   52960kB time=00:23:32.45 bitrate= 307.2kbits/s dup=1 drop=0 speed=5.43x    frame=33900 fps=130 q=32.0 size=   53075kB time=00:23:34.08 bitrate= 307.5kbits/s dup=1 drop=0 speed=5.43x    frame=33942 fps=130 q=32.0 size=   53149kB time=00:23:35.78 bitrate= 307.5kbits/s dup=1 drop=0 speed=5.42x    frame=33991 fps=130 q=32.0 size=   53273kB time=00:23:37.83 bitrate= 307.8kbits/s dup=1 drop=0 speed=5.42x    frame=34071 fps=130 q=32.0 size=   53338kB time=00:23:41.20 bitrate= 307.4kbits/s dup=1 drop=0 speed=5.42x    frame=34151 fps=130 q=32.0 size=   53416kB time=00:23:44.53 bitrate= 307.2kbits/s dup=1 drop=0 speed=5.43x    frame=34208 fps=130 q=32.0 size=   53497kB time=00:23:46.92 bitrate= 307.1kbits/s dup=1 drop=0 speed=5.42x    frame=34258 fps=130 q=32.0 size=   53546kB time=00:23:49.01 bitrate= 307.0kbits/s dup=1 drop=0 speed=5.42x    frame=34310 fps=130 q=32.0 size=   53618kB time=00:23:51.14 bitrate= 306.9kbits/s dup=1 drop=0 speed=5.42x    frame=34347 fps=130 q=32.0 size=   53726kB time=00:23:52.68 bitrate= 307.2kbits/s dup=1 drop=0 speed=5.41x    frame=34411 fps=130 q=32.0 size=   53842kB time=00:23:55.37 bitrate= 307.3kbits/s dup=1 drop=0 speed=5.41x    frame=34452 fps=130 q=32.0 size=   53989kB time=00:23:57.07 bitrate= 307.8kbits/s dup=1 drop=0 speed=5.41x    frame=34522 fps=130 q=32.0 size=   54132kB time=00:24:00.02 bitrate= 307.9kbits/s dup=1 drop=0 speed=5.41x    frame=34589 fps=130 q=32.0 size=   54227kB time=00:24:02.79 bitrate= 307.9kbits/s dup=1 drop=0 speed=5.41x    frame=34664 fps=130 q=32.0 size=   54330kB time=00:24:05.91 bitrate= 307.8kbits/s dup=1 drop=0 speed=5.41x    frame=34732 fps=130 q=32.0 size=   54416kB time=00:24:08.76 bitrate= 307.7kbits/s dup=1 drop=0 speed=5.41x    frame=34762 fps=130 q=32.0 size=   54522kB time=00:24:10.04 bitrate= 308.0kbits/s dup=1 drop=0 speed=5.41x    frame=34808 fps=130 q=32.0 size=   54636kB time=00:24:11.96 bitrate= 308.3kbits/s dup=1 drop=0 speed= 5.4x    frame=34901 fps=130 q=32.0 size=   54771kB time=00:24:15.80 bitrate= 308.2kbits/s dup=1 drop=0 speed=5.41x    frame=34995 fps=130 q=32.0 size=   54858kB time=00:24:19.73 bitrate= 307.9kbits/s dup=1 drop=0 speed=5.41x    frame=35079 fps=130 q=32.0 size=   54991kB time=00:24:23.27 bitrate= 307.9kbits/s dup=1 drop=0 speed=5.42x    frame=35176 fps=130 q=32.0 size=   55100kB time=00:24:27.28 bitrate= 307.6kbits/s dup=1 drop=0 speed=5.42x    [mp4 @ 0x3635660] Starting second pass: moving the moov atom to the beginning of the file
frame=35206 fps=130 q=-1.0 Lsize=   55987kB time=00:24:28.35 bitrate= 312.4kbits/s dup=1 drop=0 speed=5.42x    
video:45842kB audio:9310kB subtitle:0kB other streams:0kB global headers:0kB muxing overhead: 1.513440%
[libx264 @ 0x36a8fc0] frame I:347   Avg QP:22.46  size: 17737
[libx264 @ 0x36a8fc0] frame P:11828 Avg QP:25.41  size:  2784
[libx264 @ 0x36a8fc0] frame B:23031 Avg QP:30.01  size:   341
[libx264 @ 0x36a8fc0] consecutive B-frames:  4.0% 12.5% 41.2% 42.3%
[libx264 @ 0x36a8fc0] mb I  I16..4: 24.5% 50.3% 25.3%
[libx264 @ 0x36a8fc0] mb P  I16..4:  5.3%  4.2%  1.1%  P16..4: 33.6%  4.8%  4.4%  0.2%  0.0%    skip:46.4%
[libx264 @ 0x36a8fc0] mb B  I16..4:  0.3%  0.3%  0.1%  B16..8: 13.8%  0.8%  0.1%  direct: 0.4%  skip:84.2%  L0:36.9% L1:61.2% BI: 2.0%
[libx264 @ 0x36a8fc0] 8x8 transform intra:42.0% inter:59.4%
[libx264 @ 0x36a8fc0] coded y,uvDC,uvAC intra: 29.5% 51.0% 9.2% inter: 2.3% 4.4% 0.0%
[libx264 @ 0x36a8fc0] i16 v,h,dc,p: 44% 29% 18%  9%
[libx264 @ 0x36a8fc0] i8 v,h,dc,ddl,ddr,vr,hd,vl,hu: 24% 19% 39%  3%  2%  3%  3%  3%  3%
[libx264 @ 0x36a8fc0] i4 v,h,dc,ddl,ddr,vr,hd,vl,hu: 28% 20% 18%  5%  6%  6%  6%  5%  5%
[libx264 @ 0x36a8fc0] i8c dc,h,v,p: 47% 24% 24%  5%
[libx264 @ 0x36a8fc0] Weighted P-Frames: Y:2.1% UV:1.3%
[libx264 @ 0x36a8fc0] ref P L0: 61.4% 11.3% 12.5%  4.1%  3.2%  2.8%  2.6%  1.4%  0.7%  0.0%
[libx264 @ 0x36a8fc0] ref B L0: 85.2%  6.6%  3.7%  1.4%  1.2%  1.1%  0.8%
[libx264 @ 0x36a8fc0] ref B L1: 93.6%  6.4%
[libx264 @ 0x36a8fc0] kb/s:255.75
